<svg width="73" height="52" viewBox="0 0 73 52" fill="none" xmlns="http://www.w3.org/2000/svg">
<path d="M4 22.5C2.067 22.5 0.5 24.067 0.5 26C0.5 27.933 2.067 29.5 4 29.5L4 22.5ZM71.4749 28.4749C72.8417 27.108 72.8417 24.892 71.4749 23.5251L49.201 1.25127C47.8342 -0.115568 45.6181 -0.115568 44.2513 1.25127C42.8844 2.6181 42.8844 4.83418 44.2513 6.20101L64.0503 26L44.2513 45.799C42.8844 47.1658 42.8844 49.3819 44.2513 50.7487C45.6181 52.1156 47.8342 52.1156 49.201 50.7487L71.4749 28.4749ZM4 29.5L69 29.5L69 22.5L4 22.5L4 29.5Z" fill="#616161"/>
</svg>
