<svg width="95" height="95" viewBox="0 0 95 95" fill="none" xmlns="http://www.w3.org/2000/svg">
<circle cx="47.5" cy="47.5" r="45" fill="#ECAD0C" stroke="#C28C03" stroke-width="5"/>
<path d="M46.3303 69.3636V25.7273H49.1257V69.3636H46.3303ZM53.745 40.1307C53.6087 38.7557 53.0234 37.6875 51.9893 36.9261C50.9553 36.1648 49.5518 35.7841 47.7791 35.7841C46.5746 35.7841 45.5575 35.9545 44.728 36.2955C43.8984 36.625 43.2621 37.0852 42.8189 37.6761C42.3871 38.267 42.1712 38.9375 42.1712 39.6875C42.1484 40.3125 42.2791 40.858 42.5632 41.3239C42.8587 41.7898 43.2621 42.1932 43.7734 42.5341C44.2848 42.8636 44.8757 43.1534 45.5462 43.4034C46.2166 43.642 46.9325 43.8466 47.6939 44.017L50.8303 44.767C52.353 45.108 53.7507 45.5625 55.0234 46.1307C56.2962 46.6989 57.3984 47.3977 58.3303 48.2273C59.2621 49.0568 59.9837 50.0341 60.495 51.1591C61.0178 52.2841 61.2848 53.5739 61.2962 55.0284C61.2848 57.1648 60.7393 59.017 59.6598 60.5852C58.5916 62.142 57.0462 63.3523 55.0234 64.2159C53.0121 65.0682 50.5859 65.4943 47.745 65.4943C44.9268 65.4943 42.4723 65.0625 40.3814 64.1989C38.3018 63.3352 36.6768 62.0568 35.5064 60.3636C34.3473 58.6591 33.7393 56.5511 33.6825 54.0398H40.8246C40.9041 55.2102 41.2393 56.1875 41.8303 56.9716C42.4325 57.7443 43.2337 58.3295 44.2337 58.7273C45.245 59.1136 46.3871 59.3068 47.6598 59.3068C48.9098 59.3068 49.995 59.125 50.9155 58.7614C51.8473 58.3977 52.5689 57.892 53.0803 57.2443C53.5916 56.5966 53.8473 55.8523 53.8473 55.0114C53.8473 54.2273 53.6143 53.5682 53.1484 53.0341C52.6939 52.5 52.0234 52.0455 51.1371 51.6705C50.2621 51.2955 49.1882 50.9545 47.9155 50.6477L44.1143 49.6932C41.1712 48.9773 38.8473 47.858 37.1428 46.3352C35.4382 44.8125 34.5916 42.7614 34.603 40.1818C34.5916 38.0682 35.1541 36.2216 36.2905 34.642C37.4382 33.0625 39.0121 31.8295 41.0121 30.9432C43.0121 30.0568 45.2848 29.6136 47.8303 29.6136C50.4212 29.6136 52.6825 30.0568 54.6143 30.9432C56.5575 31.8295 58.0689 33.0625 59.1484 34.642C60.228 36.2216 60.7848 38.0511 60.8189 40.1307H53.745Z" fill="#9A6F00"/>
</svg>
